<?xml version="1.0" encoding="utf-8"?>
<!-- Generator: Adobe Illustrator 16.0.0, SVG Export Plug-In . SVG Version: 6.00 Build 0)  -->
<!DOCTYPE svg PUBLIC "-//W3C//DTD SVG 1.1//EN" "http://www.w3.org/Graphics/SVG/1.1/DTD/svg11.dtd">
<svg version="1.1" id="央铋_1" xmlns="http://www.w3.org/2000/svg" xmlns:xlink="http://www.w3.org/1999/xlink" x="0px" y="0px"
	 width="500px" height="500px" viewBox="0 0 500 500" enable-background="new 0 0 500 500" xml:space="preserve">
<circle fill-rule="evenodd" clip-rule="evenodd" fill="#FFFFFF" cx="249" cy="254" r="222"/>
<path fill="#ED553E" d="M250.667,455.535c-112.965,0-204.869-91.905-204.869-204.871c0-112.966,91.904-204.871,204.869-204.871
	c112.964,0,204.868,91.905,204.868,204.871C455.535,363.63,363.631,455.535,250.667,455.535z M250.667,46.723
	c-112.454,0-203.94,91.488-203.94,203.942c0,112.455,91.487,203.942,203.94,203.942c112.453,0,203.939-91.487,203.939-203.942
	C454.606,138.21,363.12,46.723,250.667,46.723z"/>
<path fill-rule="evenodd" clip-rule="evenodd" fill="#ED553E" d="M479.692,274.873c0.837-8.117,10.641-15.867,10.641-24.205
	c0-8.343-9.804-16.09-10.641-24.211c-0.857-8.273,7.136-17.89,5.451-25.89c-1.71-8.125-12.902-13.657-15.423-21.45
	c-2.542-7.883,3.273-18.965-0.053-26.462c-3.356-7.557-15.448-10.617-19.544-17.729c-4.117-7.157-0.73-19.219-5.546-25.871
	c-4.834-6.674-17.298-7.144-22.785-13.263c-5.491-6.128-4.66-18.635-10.755-24.154c-6.09-5.517-18.372-3.387-25.018-8.247
	c-6.619-4.844-8.381-17.253-15.501-21.394c-7.075-4.113-18.654,0.531-26.175-2.836c-7.454-3.343-11.75-15.115-19.595-17.677
	c-7.754-2.526-18.106,4.452-26.188,2.731c-7.96-1.691-14.611-12.299-22.844-13.16c-8.074-0.843-16.757,8.148-25.052,8.148
	c-8.296,0-16.979-8.991-25.053-8.148c-8.235,0.861-14.884,11.469-22.842,13.16c-8.083,1.717-18.435-5.258-26.189-2.731
	c-7.841,2.558-12.139,14.333-19.593,17.673c-7.522,3.368-19.098-1.276-26.175,2.84c-7.117,4.138-8.879,16.55-15.497,21.392
	c-6.64,4.858-18.931,2.728-25.019,8.24c-6.097,5.521-5.264,18.029-10.757,24.155c-5.486,6.119-17.948,6.587-22.784,13.266
	c-4.814,6.654-1.428,18.716-5.546,25.871c-4.096,7.114-16.192,10.174-19.543,17.73c-3.325,7.499,2.486,18.58-0.057,26.466
	c-2.52,7.789-13.713,13.325-15.423,21.45c-1.683,8,6.307,17.616,5.452,25.89C20.798,234.578,11,242.325,11,250.668
	c0,8.338,9.803,16.088,10.64,24.205c0.855,8.275-7.134,17.892-5.452,25.892c1.709,8.124,12.903,13.656,15.417,21.449
	c2.549,7.883-3.267,18.969,0.06,26.464c3.351,7.556,15.449,10.615,19.544,17.729c4.115,7.155,0.73,19.218,5.546,25.869
	c4.834,6.677,17.298,7.145,22.78,13.266c5.492,6.128,4.664,18.633,10.756,24.158c6.094,5.513,18.378,3.383,25.02,8.241
	c6.621,4.844,8.382,17.254,15.497,21.395c7.081,4.114,18.657-0.531,26.179,2.837c7.455,3.343,11.752,15.114,19.597,17.675
	c7.751,2.532,18.106-4.447,26.189-2.731c7.958,1.695,14.606,12.3,22.842,13.162c8.075,0.841,16.757-8.15,25.053-8.15
	c8.295,0,16.978,8.991,25.052,8.15c8.232-0.862,14.884-11.467,22.844-13.162c8.081-1.716,18.434,5.264,26.188,2.731
	c7.842-2.561,12.138-14.328,19.593-17.672c7.518-3.371,19.097,1.277,26.175-2.84c7.118-4.14,8.879-16.546,15.497-21.39
	c6.639-4.861,18.931-2.725,25.018-8.241c6.099-5.521,5.265-18.03,10.757-24.154c5.486-6.121,17.949-6.59,22.781-13.267
	c4.819-6.653,1.433-18.717,5.55-25.869c4.096-7.116,16.191-10.176,19.543-17.733c3.327-7.498-2.484-18.58,0.058-26.467
	c2.521-7.787,13.713-13.325,15.42-21.449C486.828,292.765,478.835,283.148,479.692,274.873z M250.667,461.016
	c-115.575,0-209.266-94.177-209.266-210.35c0-116.174,93.691-210.35,209.266-210.35c115.575,0,209.267,94.176,209.267,210.35
	C459.934,366.839,366.242,461.016,250.667,461.016z"/>
<g>
	<polygon fill-rule="evenodd" clip-rule="evenodd" fill="#ED553E" points="250.649,81.503 256.706,100.265 276.421,100.227 
		260.449,111.786 266.577,130.524 250.649,118.906 234.721,130.524 240.849,111.786 224.877,100.227 244.593,100.265 	"/>
	<polygon fill-rule="evenodd" clip-rule="evenodd" fill="#ED553E" points="298.933,95.752 303.854,111 319.876,110.969 
		306.897,120.36 311.877,135.587 298.933,126.146 285.99,135.587 290.971,120.36 277.991,110.969 294.011,111 	"/>
	<polygon fill-rule="evenodd" clip-rule="evenodd" fill="#ED553E" points="202.365,95.752 207.287,111 223.307,110.969 
		210.328,120.36 215.308,135.587 202.365,126.146 189.422,135.587 194.402,120.36 181.423,110.969 197.444,111 	"/>
</g>
<g>
	<polygon fill-rule="evenodd" clip-rule="evenodd" fill="#ED553E" points="250.649,362.247 256.706,343.484 276.421,343.521 
		260.449,331.964 266.577,313.226 250.649,324.844 234.721,313.226 240.849,331.964 224.877,343.521 244.593,343.484 	"/>
	<polygon fill-rule="evenodd" clip-rule="evenodd" fill="#ED553E" points="298.933,347.997 303.854,332.75 319.876,332.781 
		306.897,323.39 311.877,308.16 298.933,317.604 285.99,308.16 290.971,323.39 277.991,332.781 294.011,332.75 	"/>
	<polygon fill-rule="evenodd" clip-rule="evenodd" fill="#ED553E" points="202.365,347.997 207.287,332.75 223.307,332.781 
		210.328,323.39 215.308,308.16 202.365,317.604 189.422,308.16 194.402,323.39 181.423,332.781 197.444,332.75 	"/>
</g>
<g>
	<path fill-rule="evenodd" clip-rule="evenodd" fill="#ED553E" d="M170.714,202.778h-9.999l-15.858,8.619
		c-0.516,0.201-0.665,0.533-0.432,0.982l3.811,8.187c0.216,0.448,0.632,0.615,1.214,0.481c4.127-1.613,7.088-2.711,8.868-3.261
		v54.095c0,0.515,0.317,0.781,0.933,0.781h11.463c0.582,0,0.883-0.267,0.883-0.781V203.61
		C171.597,203.062,171.296,202.778,170.714,202.778z"/>
	<path fill-rule="evenodd" clip-rule="evenodd" fill="#ED553E" d="M220.833,206.871c-1.98-1.631-4.211-2.896-6.673-3.777
		c-2.457-0.88-4.997-1.313-7.62-1.314h-0.018c-2.662,0-5.224,0.434-7.687,1.314c-2.463,0.882-4.676,2.146-6.623,3.777
		c-1.964,1.646-3.528,3.777-4.709,6.389c-1.181,2.629-1.781,5.525-1.781,8.703v31.564c0,3.212,0.6,6.124,1.781,8.752
		c1.181,2.611,2.745,4.726,4.726,6.356c1.979,1.631,4.192,2.878,6.638,3.727c2.447,0.866,4.993,1.299,7.654,1.299h0.018
		c2.091-0.003,4.148-0.27,6.139-0.8c1.998-0.549,3.877-1.363,5.642-2.463c1.764-1.114,3.328-2.444,4.676-4.009
		c1.348-1.563,2.412-3.445,3.194-5.658c0.782-2.212,1.164-4.607,1.164-7.204v-31.564c0-3.178-0.598-6.073-1.78-8.703
		C224.393,210.648,222.812,208.518,220.833,206.871z M214.077,253.977c0,2.413-0.749,4.293-2.23,5.656
		c-1.494,1.361-3.268,2.044-5.307,2.048h-0.018c-2.03,0-3.793-0.683-5.291-2.048c-1.48-1.363-2.23-3.243-2.23-5.656v-32.862
		c0-2.396,0.732-4.26,2.214-5.575c1.464-1.314,3.244-1.979,5.307-1.979h0.018c2.022,0.005,3.781,0.669,5.274,1.996
		c1.514,1.332,2.263,3.195,2.263,5.558V253.977z"/>
	<path fill-rule="evenodd" clip-rule="evenodd" fill="#ED553E" d="M277.238,206.871c-1.979-1.631-4.211-2.896-6.673-3.777
		c-2.457-0.88-4.996-1.313-7.62-1.314h-0.018c-2.66,0-5.225,0.434-7.687,1.314c-2.462,0.882-4.676,2.146-6.623,3.777
		c-1.963,1.646-3.527,3.777-4.708,6.389c-1.181,2.629-1.78,5.525-1.78,8.703v31.564c0,3.212,0.599,6.124,1.78,8.752
		c1.181,2.611,2.745,4.726,4.726,6.356c1.979,1.631,4.193,2.878,6.638,3.727c2.447,0.866,4.993,1.299,7.653,1.299h0.018
		c2.092-0.003,4.149-0.27,6.14-0.8c1.998-0.549,3.876-1.363,5.642-2.463c1.764-1.114,3.327-2.444,4.676-4.009
		c1.347-1.563,2.412-3.445,3.193-5.658c0.783-2.212,1.165-4.607,1.165-7.204v-31.564c0-3.178-0.599-6.073-1.78-8.703
		C280.799,210.648,279.218,208.518,277.238,206.871z M270.482,253.977c0,2.413-0.748,4.293-2.229,5.656
		c-1.494,1.361-3.269,2.044-5.309,2.048h-0.018c-2.029,0-3.792-0.683-5.291-2.048c-1.479-1.363-2.229-3.243-2.229-5.656v-32.862
		c0-2.396,0.733-4.26,2.214-5.575c1.465-1.314,3.244-1.979,5.307-1.979h0.018c2.022,0.005,3.781,0.669,5.275,1.996
		c1.514,1.332,2.262,3.195,2.262,5.558V253.977z"/>
	<path fill-rule="evenodd" clip-rule="evenodd" fill="#ED553E" d="M340.267,243.609h-0.016c-4.193,0-7.771,1.465-10.733,4.394
		c-2.944,2.944-4.425,6.471-4.425,10.597c0,4.128,1.48,7.655,4.425,10.567c2.963,2.929,6.54,4.394,10.733,4.394h0.016
		c4.204-0.004,7.791-1.452,10.749-4.36c2.944-2.912,4.425-6.439,4.425-10.601c0-4.159-1.48-7.702-4.425-10.615
		C348.058,245.078,344.471,243.613,340.267,243.609z M344.178,262.629c-1.128,1.095-2.421,1.643-3.911,1.646h-0.016
		c-1.531,0-2.829-0.548-3.895-1.646c-1.047-1.114-1.581-2.462-1.581-4.043c0-1.598,0.534-2.929,1.581-4.043
		c1.065-1.1,2.363-1.648,3.895-1.648h0.016c1.49,0.004,2.783,0.553,3.911,1.648c1.114,1.114,1.681,2.445,1.681,4.043
		C345.858,260.167,345.292,261.515,344.178,262.629z"/>
	<path fill-rule="evenodd" clip-rule="evenodd" fill="#ED553E" d="M355.791,202.778h-10.764c-0.334,0-0.601,0.117-0.833,0.349
		l-3.928,5.041l-32.197,41.336l-16.871,21.662c-0.25,0.298-0.3,0.599-0.116,0.881c0.183,0.299,0.483,0.433,0.896,0.433h10.783
		c0.35,0,0.633-0.084,0.832-0.283l4.476-5.754l32.197-41.388l16.307-20.962c0.267-0.282,0.301-0.582,0.134-0.882
		C356.523,202.928,356.224,202.778,355.791,202.778z"/>
	<path fill-rule="evenodd" clip-rule="evenodd" fill="#ED553E" d="M308.069,231.43h0.033c4.095,0,7.605-1.448,10.567-4.359
		c2.945-2.911,4.426-6.39,4.426-10.417c0-4.093-1.48-7.603-4.426-10.515c-2.962-2.912-6.473-4.36-10.567-4.36h-0.033
		c-4.079,0.009-7.595,1.456-10.565,4.36c-2.979,2.912-4.459,6.422-4.459,10.515c0,4.027,1.48,7.505,4.459,10.417
		C300.475,229.974,303.99,231.421,308.069,231.43z M304.178,212.545c1.098-1.115,2.394-1.681,3.892-1.681l0,0
		c1.498,0,2.797,0.566,3.895,1.681c1.099,1.114,1.647,2.479,1.647,4.109c0,1.581-0.549,2.913-1.647,3.994
		c-1.098,1.064-2.396,1.597-3.895,1.597l0,0c-1.498,0-2.794-0.533-3.892-1.597c-1.099-1.082-1.647-2.413-1.647-3.994
		C302.53,215.024,303.079,213.66,304.178,212.545z"/>
	<polygon fill-rule="evenodd" clip-rule="evenodd" fill="#ED553E" points="116.671,212.359 85.982,212.366 107.261,263.466 
		86.001,314.574 138.574,314.565 116.686,289.018 	"/>
	<polygon fill-rule="evenodd" clip-rule="evenodd" fill="#ED553E" points="394.07,263.413 415.328,212.304 384.641,212.309 
		384.654,288.967 362.777,314.523 415.349,314.512 	"/>
	<path fill-rule="evenodd" clip-rule="evenodd" fill="#ED553E" d="M378.832,213.104l-0.004-26.345l-20.514,0.004h-1.575
		l-106.078,0.02l-105.935,0.02l-1.577,0.001l-20.675,0.003l0.005,25.552l0.014,76.658l21.888,25.547h0.37l-0.004-25.12v-0.432
		l105.915-0.019l105.935-0.022v0.432l0.004,25.121h0.37l21.876-25.555L378.832,213.104z M361.512,281.19l-4.754,0.001
		l-106.097,0.021l-105.918,0.021h-4.754l-7.251,0.001l-0.016-87.053l10.429-0.002l1.577-0.001l105.934-0.02l106.078-0.02
		l1.576-0.001l10.268-0.001l0.017,87.055H361.512z"/>
</g>
<path fill-rule="evenodd" clip-rule="evenodd" fill="#ED553E" d="M439.637,250.668H428.87
	c-0.003,49.241-19.927,93.726-52.196,126.007c-32.28,32.267-76.764,52.189-126.004,52.194
	c-49.248-0.005-93.73-19.928-126.012-52.194c-32.268-32.281-52.191-76.766-52.196-126.007c0.005-49.245,19.928-93.729,52.196-126.01
	c32.281-32.263,76.764-52.191,126.012-52.195c49.241,0.004,93.724,19.932,126.004,52.195c32.27,32.281,52.193,76.765,52.196,126.01
	h21.529c-0.008-110.315-89.419-199.725-199.73-199.733C140.353,50.943,50.942,140.353,50.932,250.668
	c0.01,110.312,89.42,199.727,199.737,199.729c110.311-0.003,199.722-89.418,199.73-199.729H439.637z"/>
<g>
	<path fill-rule="evenodd" clip-rule="evenodd" fill="#ED553E" d="M135.859,161.292c-1.381-0.65-2.815-0.976-4.311-0.976
		c-1.002,0-1.86-0.283-2.586-0.852c-0.723-0.568-1.088-1.353-1.088-2.361c0-1.124,0.352-1.991,1.048-2.605
		c0.698-0.616,1.578-0.92,2.626-0.92c1.015,0,1.854,0.256,2.524,0.771c0.677,0.515,1.028,1.266,1.069,2.241
		c0,0.067,0.047,0.127,0.142,0.188c0.087,0.061,0.183,0.088,0.277,0.088h4.568c0.115,0,0.216-0.027,0.297-0.088
		c0.075-0.061,0.116-0.122,0.116-0.188c-0.041-2.437-0.914-4.426-2.633-5.968c-1.712-1.55-3.83-2.322-6.36-2.322
		c-1.171,0-2.3,0.203-3.39,0.615c-1.089,0.407-2.051,0.982-2.896,1.726c-0.845,0.737-1.516,1.671-2.023,2.795
		c-0.507,1.123-0.765,2.348-0.765,3.667c0,1.691,0.406,3.173,1.225,4.431c0.818,1.267,1.99,2.254,3.519,2.965
		c1.4,0.648,2.842,0.974,4.331,0.974c0.92,0.041,1.759,0.387,2.524,1.029c0.765,0.65,1.15,1.482,1.15,2.505
		c0,0.947-0.359,1.724-1.076,2.333c-0.723,0.609-1.583,0.913-2.598,0.913c-1.002,0-1.847-0.27-2.558-0.812
		c-0.704-0.542-1.076-1.299-1.116-2.266c0-0.075-0.047-0.15-0.135-0.224c-0.096-0.074-0.183-0.108-0.278-0.108h-4.574
		c-0.114,0-0.216,0.034-0.298,0.108c-0.074,0.074-0.115,0.149-0.115,0.231c0.041,2.577,0.914,4.6,2.612,6.055
		c1.705,1.461,3.863,2.227,6.482,2.294c1.177,0,2.307-0.189,3.39-0.575c1.083-0.385,2.043-0.927,2.889-1.624
		c0.846-0.704,1.523-1.604,2.023-2.7c0.501-1.097,0.751-2.307,0.751-3.626c0-1.733-0.412-3.283-1.231-4.636
		C138.572,163.017,137.395,161.989,135.859,161.292z"/>
	<path fill-rule="evenodd" clip-rule="evenodd" fill="#ED553E" d="M154.589,148.091c-0.055-0.129-0.176-0.196-0.359-0.196l-0.031,0
		c-0.166,0.007-0.284,0.074-0.349,0.196l-11.076,28.583c-0.027,0.047-0.041,0.101-0.041,0.155s0.021,0.108,0.061,0.162
		c0.075,0.089,0.197,0.136,0.353,0.136h4.98c0.21,0,0.332-0.068,0.372-0.197l1.089-3.011h4.611h4.611l1.171,3.011
		c0.034,0.129,0.149,0.197,0.332,0.197h5.034c0.15,0,0.251-0.047,0.298-0.142c0.028-0.048,0.046-0.102,0.062-0.156
		c0-0.054-0.015-0.108-0.042-0.155L154.589,148.091z M154.199,169.127h-2.865l2.865-8.458l0.031-0.088l2.835,8.545H154.199z"/>
	<path fill-rule="evenodd" clip-rule="evenodd" fill="#ED553E" d="M180.769,148.949h-16.078c-0.123,0-0.217,0.035-0.292,0.102
		c-0.074,0.062-0.107,0.135-0.107,0.217v4.195c0,0.183,0.128,0.278,0.392,0.278h5.373v23.067c0,0.209,0.129,0.318,0.379,0.318h4.566
		c0.25,0,0.374-0.109,0.374-0.318v-23.067h5.393c0.277,0,0.413-0.095,0.413-0.278v-4.195c0-0.082-0.041-0.155-0.123-0.217
		C180.985,148.984,180.883,148.949,180.769,148.949z"/>
	<path fill-rule="evenodd" clip-rule="evenodd" fill="#ED553E" d="M189.815,148.706h-4.574c-0.115,0-0.216,0.034-0.291,0.108
		c-0.082,0.075-0.122,0.15-0.122,0.231v27.764c0,0.08,0.041,0.155,0.122,0.216c0.074,0.067,0.175,0.102,0.291,0.102h4.574
		c0.116,0,0.217-0.034,0.292-0.102c0.081-0.061,0.121-0.136,0.121-0.216v-27.764c0-0.081-0.041-0.156-0.121-0.231
		C190.032,148.74,189.931,148.706,189.815,148.706z"/>
	<path fill-rule="evenodd" clip-rule="evenodd" fill="#ED553E" d="M208.424,161.408c-1.354-0.616-2.762-0.928-4.236-0.928
		c-0.968,0-1.813-0.324-2.532-0.967c-0.724-0.644-1.083-1.47-1.083-2.464c0-1.156,0.338-2.036,1.023-2.646
		c0.683-0.602,1.548-0.906,2.591-0.906c0.995,0,1.821,0.264,2.483,0.784c0.663,0.522,1.009,1.267,1.049,2.227
		c0,0.082,0.048,0.156,0.128,0.217c0.088,0.068,0.183,0.102,0.292,0.102h4.566c0.116,0,0.21-0.034,0.286-0.102
		c0.074-0.061,0.108-0.135,0.108-0.217c-0.041-2.403-0.901-4.372-2.593-5.886c-1.691-1.523-3.802-2.281-6.319-2.281
		c-1.178,0-2.308,0.203-3.39,0.603c-1.083,0.406-2.037,0.975-2.87,1.705c-0.832,0.731-1.502,1.651-2.003,2.762
		c-0.5,1.102-0.75,2.32-0.75,3.639c0,1.692,0.412,3.201,1.231,4.521c0.819,1.32,1.976,2.335,3.484,3.052
		c1.375,0.623,2.801,0.935,4.297,0.935c0.887,0.04,1.712,0.385,2.47,1.042c0.765,0.656,1.145,1.481,1.145,2.462
		c0,0.961-0.354,1.732-1.064,2.314c-0.71,0.589-1.556,0.879-2.55,0.879c-0.994,0-1.834-0.263-2.524-0.784
		c-0.684-0.521-1.049-1.272-1.09-2.253c0-0.082-0.04-0.15-0.127-0.203c-0.088-0.062-0.183-0.088-0.285-0.088h-4.574
		c-0.277,0-0.412,0.101-0.412,0.298c0.04,2.578,0.907,4.594,2.592,6.035c1.684,1.449,3.836,2.206,6.442,2.274
		c1.164,0,2.28-0.189,3.356-0.568c1.068-0.379,2.03-0.908,2.869-1.597c0.839-0.69,1.51-1.584,2.017-2.68
		c0.5-1.089,0.751-2.3,0.751-3.627c0-1.684-0.413-3.207-1.245-4.566C211.13,163.14,209.953,162.111,208.424,161.408z"/>
	<path fill-rule="evenodd" clip-rule="evenodd" fill="#ED553E" d="M236.999,148.949h-18.385c-0.094,0-0.182,0.035-0.257,0.102
		c-0.082,0.062-0.122,0.135-0.122,0.217v27.541c0,0.08,0.041,0.155,0.122,0.216c0.075,0.067,0.163,0.102,0.257,0.102h4.643
		c0.25,0,0.378-0.109,0.378-0.318v-11.172h11.05c0.237,0,0.359-0.108,0.359-0.317v-4.507c0-0.224-0.122-0.332-0.359-0.332h-11.05
		v-6.252h13.372c0.115,0,0.209-0.034,0.283-0.107c0.074-0.074,0.108-0.15,0.108-0.231v-4.621c0-0.082-0.034-0.149-0.108-0.217
		C237.216,148.984,237.121,148.949,236.999,148.949z"/>
	<path fill-rule="evenodd" clip-rule="evenodd" fill="#ED553E" d="M250.782,148.091c-0.054-0.129-0.175-0.196-0.358-0.196l-0.03,0
		c-0.167,0.007-0.285,0.074-0.349,0.196l-11.077,28.583c-0.027,0.047-0.042,0.101-0.042,0.155s0.021,0.108,0.062,0.162
		c0.075,0.089,0.196,0.136,0.353,0.136h4.979c0.21,0,0.332-0.068,0.373-0.197l1.088-3.011h4.612h4.611l1.17,3.011
		c0.034,0.129,0.148,0.197,0.333,0.197h5.033c0.15,0,0.251-0.047,0.298-0.142c0.027-0.048,0.048-0.102,0.062-0.156
		c0-0.054-0.014-0.108-0.042-0.155L250.782,148.091z M250.394,169.127h-2.866l2.866-8.458l0.03-0.088l2.835,8.545H250.394z"/>
	<path fill-rule="evenodd" clip-rule="evenodd" fill="#ED553E" d="M273.6,154.729c1.333-0.846,2.882-1.272,4.655-1.272
		c2.367,0,4.432,0.867,6.206,2.599c0.182,0.142,0.378,0.142,0.574,0l3.214-3.208c0.074-0.067,0.115-0.148,0.115-0.237
		c0-0.095-0.041-0.169-0.115-0.237c-1.286-1.286-2.781-2.287-4.499-3.004c-1.72-0.71-3.554-1.069-5.495-1.069
		c-2.734,0-5.19,0.636-7.361,1.901c-2.166,1.265-3.857,3.012-5.068,5.25c-1.213,2.233-1.814,4.744-1.814,7.545
		c0,2.159,0.379,4.155,1.138,5.995c0.758,1.834,1.779,3.371,3.065,4.615c1.292,1.239,2.801,2.199,4.532,2.889
		c1.731,0.691,3.566,1.036,5.509,1.036c1.928,0,3.755-0.366,5.48-1.089c1.726-0.723,3.228-1.739,4.514-3.032
		c0.074-0.054,0.115-0.127,0.115-0.236s-0.041-0.196-0.115-0.258l-3.214-3.261c-0.196-0.142-0.393-0.142-0.574,0
		c-1.733,1.732-3.798,2.597-6.206,2.597c-1.204,0-2.334-0.216-3.397-0.642c-1.068-0.433-1.988-1.042-2.773-1.827
		c-0.793-0.786-1.408-1.768-1.867-2.937c-0.454-1.164-0.685-2.45-0.685-3.851c0-1.799,0.346-3.417,1.029-4.852
		C271.251,156.711,272.259,155.575,273.6,154.729z"/>
	<path fill-rule="evenodd" clip-rule="evenodd" fill="#ED553E" d="M307.237,148.949h-16.078c-0.122,0-0.218,0.035-0.292,0.102
		c-0.073,0.062-0.106,0.135-0.106,0.217v4.195c0,0.183,0.128,0.278,0.391,0.278h5.373v23.067c0,0.209,0.13,0.318,0.381,0.318h4.566
		c0.25,0,0.373-0.109,0.373-0.318v-23.067h5.393c0.276,0,0.412-0.095,0.412-0.278v-4.195c0-0.082-0.04-0.155-0.122-0.217
		C307.454,148.984,307.351,148.949,307.237,148.949z"/>
	<path fill-rule="evenodd" clip-rule="evenodd" fill="#ED553E" d="M316.283,148.706h-4.574c-0.114,0-0.216,0.034-0.291,0.108
		c-0.082,0.075-0.122,0.15-0.122,0.231v27.764c0,0.08,0.04,0.155,0.122,0.216c0.075,0.067,0.177,0.102,0.291,0.102h4.574
		c0.115,0,0.218-0.034,0.292-0.102c0.08-0.061,0.12-0.136,0.12-0.216v-27.764c0-0.081-0.04-0.156-0.12-0.231
		C316.501,148.74,316.398,148.706,316.283,148.706z"/>
	<path fill-rule="evenodd" clip-rule="evenodd" fill="#ED553E" d="M347.37,154.614c-0.766-1.245-1.693-2.335-2.775-3.275
		c-1.083-0.941-2.389-1.679-3.918-2.226c-1.521-0.542-3.187-0.813-4.987-0.813h-0.02c-1.826,0.002-3.519,0.272-5.061,0.813
		c-1.551,0.547-2.876,1.285-3.967,2.226c-1.088,0.94-2.017,2.03-2.794,3.275c-0.771,1.245-1.339,2.564-1.698,3.965
		c-0.366,1.394-0.548,2.836-0.548,4.317c0,1.482,0.182,2.924,0.548,4.317c0.359,1.387,0.927,2.707,1.698,3.958
		c0.777,1.246,1.706,2.335,2.794,3.276c1.091,0.934,2.416,1.677,3.967,2.227c1.542,0.545,3.234,0.816,5.061,0.818h0.02
		c1.801,0,3.466-0.271,4.987-0.818c1.529-0.549,2.835-1.292,3.918-2.227c1.082-0.941,2.01-2.03,2.775-3.268
		c0.756-1.239,1.326-2.558,1.691-3.959c0.372-1.4,0.555-2.842,0.555-4.324c0-1.481-0.183-2.923-0.555-4.317
		C348.696,157.178,348.126,155.859,347.37,154.614z M343.668,166.455c-0.359,1.11-0.887,2.119-1.584,3.011
		c-0.697,0.894-1.59,1.611-2.699,2.146c-1.103,0.533-2.334,0.805-3.695,0.805h-0.02c-1.379-0.003-2.625-0.273-3.729-0.805
		c-1.11-0.535-2.009-1.252-2.693-2.146c-0.69-0.893-1.218-1.901-1.577-3.011c-0.365-1.116-0.547-2.273-0.547-3.477
		c0-1.218,0.182-2.39,0.547-3.512c0.359-1.117,0.887-2.125,1.577-3.025c0.685-0.907,1.583-1.625,2.693-2.172
		c1.104-0.539,2.35-0.809,3.729-0.812h0.02c1.361,0,2.593,0.271,3.695,0.812c1.109,0.547,2.002,1.265,2.699,2.172
		c0.697,0.9,1.225,1.908,1.584,3.025c0.365,1.123,0.549,2.294,0.549,3.512C344.217,164.182,344.033,165.338,343.668,166.455z"/>
	<path fill-rule="evenodd" clip-rule="evenodd" fill="#ED553E" d="M378.678,148.773c-0.073-0.074-0.176-0.107-0.297-0.107h-4.562
		c-0.12,0-0.224,0.034-0.297,0.107c-0.081,0.074-0.122,0.149-0.122,0.231v18.864l-13.032-19.082
		c-0.041-0.082-0.143-0.122-0.299-0.122h-4.661c-0.237,0-0.359,0.115-0.359,0.339v27.804c0,0.209,0.115,0.318,0.354,0.318h4.593
		c0.089,0,0.176-0.034,0.258-0.102c0.074-0.061,0.115-0.136,0.115-0.216v-18.731l13.04,18.927c0.04,0.081,0.148,0.122,0.337,0.122
		h4.636c0.121,0,0.224-0.034,0.297-0.102c0.081-0.061,0.122-0.136,0.122-0.216v-27.804
		C378.8,148.923,378.759,148.848,378.678,148.773z"/>
</g>
<g>
	<path fill="#ED553E" d="M187.252,365.692c0.045-0.072,0.051-0.16,0.013-0.26c-0.028-0.101-0.087-0.18-0.165-0.229l-4.083-2.555
		c-0.1-0.062-0.21-0.09-0.313-0.07c-0.105,0.009-0.183,0.053-0.227,0.124l-0.267,0.425l-10.079,16.107
		c-0.506,0.809-1.176,1.363-2.009,1.666c-0.835,0.312-1.686,0.379-2.548,0.214c-0.869-0.169-1.706-0.509-2.525-1.021
		c-1.228-0.768-2.074-1.771-2.531-3c-0.462-1.229-0.389-2.492,0.227-3.782l10.321-16.495c0.045-0.073,0.051-0.161,0.013-0.26
		c-0.029-0.102-0.101-0.187-0.202-0.251l-4.046-2.532c-0.103-0.064-0.211-0.091-0.313-0.072c-0.106,0.009-0.183,0.054-0.228,0.126
		l-8.405,13.431l-1.959,3.132c-1.051,1.682-1.558,3.446-1.514,5.282c0.053,1.832,0.578,3.535,1.59,5.101
		c0.527,0.822,1.155,1.578,1.884,2.269c0.664,0.628,1.412,1.202,2.241,1.721c1.813,1.136,3.63,1.814,5.462,2.053
		c1.832,0.229,3.563-0.036,5.207-0.799c1.637-0.768,3.004-2.019,4.093-3.762l5.321-8.503L187.252,365.692z"/>
	<path fill="#ED553E" d="M158.325,361.199c-0.003-0.105-0.04-0.196-0.107-0.269l-6.894-7.33c-0.082-0.087-0.18-0.141-0.285-0.149
		c-0.104-0.019-0.19,0.005-0.25,0.064l-3.251,3.056c-0.14,0.131-0.11,0.307,0.089,0.518l3.299,3.508l-2.834,2.666
		c-2.797,0.044-5.121-0.921-6.964-2.882c-0.905-0.961-1.594-1.971-2.06-3.035c-0.467-1.063-0.713-2.17-0.738-3.319
		c-0.034-1.149,0.252-2.341,0.854-3.556c0.598-1.22,1.502-2.4,2.712-3.538c2.16-2.033,4.488-3.01,6.973-2.924
		c2.491,0.082,4.642,1.091,6.457,3.021c0.86,0.916,1.512,1.96,1.941,3.117c0.425,1.162,0.627,2.357,0.595,3.591
		c-0.007,0.209,0.114,0.338,0.362,0.385l1.664,0.04l3.098,0.075c0.109,0.015,0.195-0.009,0.267-0.076
		c0.072-0.068,0.106-0.155,0.094-0.263c0.094-1.92-0.203-3.802-0.892-5.646c-0.589-1.598-1.446-3.056-2.567-4.378
		c-0.176-0.209-0.36-0.415-0.551-0.617c-1.389-1.478-2.997-2.62-4.811-3.425c-1.818-0.811-3.668-1.24-5.548-1.305
		c-1.888-0.068-3.791,0.269-5.706,0.995c-1.917,0.725-3.664,1.824-5.237,3.304c-1.734,1.631-3.057,3.38-3.964,5.249
		c-0.911,1.867-1.386,3.699-1.427,5.512c-0.046,1.808,0.275,3.58,0.957,5.313c0.68,1.736,1.706,3.331,3.085,4.797
		c2.303,2.449,4.919,3.611,7.864,3.498l-1.899,2c-0.062,0.058-0.079,0.132-0.062,0.233c0.011,0.094,0.059,0.186,0.136,0.268
		l2.897,3.081c0.067,0.072,0.157,0.115,0.262,0.123c0.109,0.015,0.188-0.004,0.25-0.062l12.113-11.393
		C158.309,361.389,158.337,361.305,158.325,361.199z"/>
	<path fill="#ED553E" d="M227.613,382.188c-0.363-0.543-0.728-1.011-1.113-1.388c-0.379-0.373-0.83-0.722-1.34-1.054
		c-0.514-0.325-0.968-0.588-1.372-0.787c-0.398-0.19-0.841-0.377-1.34-0.541c-0.491-0.169-0.848-0.285-1.087-0.347
		c-0.232-0.06-0.488-0.117-0.77-0.182l-2.24-0.504l-7.101-1.602c-0.097-0.022-0.195-0.009-0.288,0.05
		c-0.099,0.058-0.158,0.124-0.177,0.208l-6.374,28.262c-0.02,0.081,0.006,0.168,0.075,0.248c0.061,0.085,0.142,0.142,0.238,0.163
		l4.691,1.057c0.117,0.026,0.229,0.015,0.32-0.038c0.097-0.041,0.156-0.108,0.173-0.19l2.575-11.414l3.085,0.695l2.701,12.735
		c0.016,0.059,0.043,0.109,0.081,0.152c0.057,0.062,0.137,0.107,0.241,0.129l5.172,1.167c0.166,0.037,0.28,0.012,0.357-0.071
		c0.038-0.043,0.064-0.094,0.077-0.15c0.012-0.054,0.011-0.111-0.005-0.173c-0.275-1.41-0.738-3.599-1.393-6.569
		c-0.653-2.977-1.139-5.251-1.452-6.82c1.72-0.205,3.212-0.825,4.484-1.87c1.27-1.044,2.136-2.602,2.6-4.66
		c0.206-0.916,0.3-1.779,0.283-2.6c-0.027-0.816-0.125-1.534-0.304-2.153C228.233,383.321,227.968,382.732,227.613,382.188z
		 M222.937,387.454c-0.137,0.606-0.372,1.103-0.699,1.493c-0.328,0.396-0.672,0.667-1.03,0.81c-0.358,0.145-0.769,0.233-1.244,0.255
		c-0.47,0.031-0.86,0.024-1.154-0.014c-0.149-0.02-0.302-0.043-0.458-0.071c-0.152-0.026-0.309-0.059-0.469-0.094l-4.214-0.952
		l1.509-6.694l3.174,0.717l1.043,0.234c0.254,0.058,0.512,0.13,0.774,0.218c0.263,0.089,0.61,0.245,1.029,0.478
		c0.42,0.227,0.781,0.488,1.062,0.775c0.291,0.289,0.511,0.688,0.659,1.191C223.066,386.297,223.073,386.849,222.937,387.454z"/>
	<path fill="#ED553E" d="M200.717,370.34c-0.172-0.08-0.324-0.072-0.444,0.021l-8.36,8.069l-9.703,9.364l-4.953,4.781
		c-0.046,0.033-0.083,0.077-0.106,0.128c-0.024,0.054-0.028,0.113-0.014,0.183c0.031,0.115,0.126,0.214,0.273,0.281l4.718,2.183
		l0.083,0.034c0.157,0.053,0.275,0.033,0.355-0.057l2.351-2.374l6.997,3.236l1.739,0.806l-0.211,3.363
		c-0.025,0.137,0.055,0.252,0.227,0.331l4.769,2.207c0.14,0.064,0.257,0.064,0.344-0.005c0.046-0.033,0.089-0.075,0.126-0.121
		c0.023-0.05,0.035-0.107,0.029-0.164l2.036-31.924C200.977,370.539,200.891,370.42,200.717,370.34z M194.098,391.691l-2.185-1.01
		l-3.244-1.5l3.244-3.414l3.243-3.412L194.098,391.691z"/>
	<path fill="#ED553E" d="M278.827,378.64c-0.012-0.083-0.065-0.155-0.162-0.221c-0.085-0.064-0.195-0.086-0.322-0.068l-4.713,0.666
		c-0.125,0.017-0.227,0.067-0.29,0.153c-0.074,0.09-0.105,0.174-0.093,0.257l2.749,19.493l-16.246-17.818
		c-0.055-0.077-0.165-0.104-0.328-0.081l-4.816,0.681c-0.244,0.033-0.353,0.171-0.319,0.4l4.052,28.73
		c0.031,0.216,0.165,0.311,0.41,0.277l4.749-0.67c0.089-0.014,0.177-0.062,0.25-0.144c0.067-0.073,0.099-0.156,0.086-0.239
		l-2.729-19.354l16.233,17.656c0.052,0.077,0.17,0.105,0.367,0.076l4.284-0.604l0.505-0.072c0.124-0.018,0.226-0.067,0.292-0.147
		c0.075-0.074,0.105-0.157,0.095-0.24l-0.892-6.323L278.827,378.64z"/>
	<path fill="#ED553E" d="M349.443,370.852c-0.045-0.064-0.119-0.105-0.219-0.112c-0.105-0.013-0.206,0.015-0.305,0.086l-4.377,3.127
		l-6.977,4.981l-3.965-5.551l9.384-6.701c0.2-0.143,0.239-0.31,0.113-0.486l-2.682-3.753c-0.135-0.189-0.309-0.214-0.509-0.07
		l-9.383,6.7l-3.988-5.585l11.354-8.107c0.098-0.071,0.156-0.156,0.179-0.26c0.027-0.096,0.011-0.181-0.039-0.249l-2.729-3.822
		c-0.049-0.068-0.124-0.11-0.233-0.128c-0.106-0.02-0.207,0.01-0.312,0.084l-10.575,7.552l-5.038,3.599
		c-0.08,0.057-0.134,0.139-0.151,0.246c-0.024,0.113-0.015,0.2,0.036,0.27l5.153,7.214l11.684,16.363
		c0.05,0.068,0.129,0.108,0.235,0.109c0.103,0.014,0.197-0.011,0.278-0.067l8.163-5.829l7.45-5.322
		c0.103-0.074,0.162-0.16,0.186-0.262c0.025-0.097,0.01-0.181-0.04-0.25L349.443,370.852z"/>
	<path fill="#ED553E" d="M367.523,350.771c-0.294-1.161-0.841-2.373-1.627-3.647c-0.794-1.28-1.822-2.513-3.088-3.705
		c-1.311-1.234-2.638-2.214-3.979-2.944c-1.345-0.725-2.598-1.196-3.763-1.412c-1.166-0.215-2.355-0.239-3.554-0.068
		c-1.204,0.176-2.294,0.468-3.282,0.877c-0.976,0.407-1.979,0.958-2.991,1.652c-0.242,0.164-0.473,0.329-0.697,0.492
		c-0.726,0.525-1.374,1.046-1.944,1.56c-0.748,0.681-1.516,1.433-2.3,2.266l-3.274,3.476c-0.087,0.09-0.134,0.193-0.13,0.302
		c-0.003,0.116,0.025,0.2,0.087,0.256l7.562,7.125l13.524,12.744c0.062,0.058,0.146,0.081,0.251,0.063
		c0.104-0.008,0.203-0.063,0.289-0.152l3.274-3.476c0.774-0.821,1.479-1.652,2.123-2.49c0.636-0.838,1.246-1.785,1.845-2.843
		c0.597-1.056,1.071-2.105,1.4-3.143c0.339-1.038,0.534-2.164,0.608-3.375C367.928,353.111,367.817,351.929,367.523,350.771z
		 M362.283,355.157c-0.091,0.827-0.271,1.565-0.537,2.218c-0.263,0.648-0.606,1.303-1.032,1.959
		c-0.426,0.648-0.823,1.193-1.204,1.64c-0.178,0.21-0.367,0.422-0.564,0.631c-0.2,0.211-0.407,0.421-0.627,0.634l-13.775-12.982
		l-0.161-0.151l0.161-0.188c0.235-0.28,0.47-0.542,0.704-0.791c0.566-0.601,1.135-1.132,1.696-1.584
		c0.838-0.693,1.741-1.24,2.713-1.644c0.973-0.403,1.937-0.593,2.899-0.565c0.961,0.021,1.987,0.301,3.077,0.822
		c1.095,0.527,2.196,1.313,3.313,2.364c0.913,0.863,1.64,1.75,2.182,2.658c0.541,0.907,0.896,1.757,1.055,2.554
		C362.345,353.526,362.373,354.341,362.283,355.157z"/>
	<path fill="#ED553E" d="M297.969,373.507c0.006-0.019,0.023-0.022,0.031-0.038c-0.029-0.069-0.079-0.129-0.168-0.165
		c-0.096-0.045-0.206-0.049-0.321-0.015l-15.522,4.552l-0.577,0.171c-0.121,0.035-0.207,0.096-0.261,0.186
		c-0.057,0.084-0.069,0.168-0.046,0.249l0.884,3.012l0.35,1.189c0.052,0.182,0.209,0.239,0.474,0.163l5.38-1.579l6.773,23.098
		c0.063,0.211,0.224,0.282,0.474,0.209l3.687-1.081l0.887-0.26c0.251-0.075,0.341-0.22,0.28-0.429l-1.167-3.977l-5.607-19.122
		l5.399-1.583c0.086-0.026,0.154-0.055,0.208-0.09c0.122-0.08,0.162-0.183,0.124-0.31l-0.124-0.424l-0.868-2.957l-0.286-0.528
		C297.932,373.704,297.932,373.615,297.969,373.507z"/>
	<path fill="#ED553E" d="M327.142,385.656c-0.038-0.068-0.105-0.119-0.205-0.138c-0.101-0.025-0.205-0.011-0.311,0.047l-2.443,1.324
		l-9.827,5.319l-3.246-5.999l10.139-5.488c0.219-0.118,0.276-0.277,0.171-0.47l-2.193-4.058c-0.111-0.204-0.281-0.249-0.498-0.131
		l-10.14,5.489l-3.269-6.036l12.271-6.641c0.105-0.058,0.176-0.137,0.212-0.236c0.037-0.092,0.031-0.178-0.009-0.252l-2.236-4.129
		c-0.04-0.075-0.108-0.126-0.214-0.158c-0.104-0.03-0.207-0.014-0.32,0.046l-15.897,8.607l-0.973,0.526
		c-0.073,0.039-0.118,0.11-0.152,0.188c0.002,0.007,0.015,0.01,0.017,0.018l0.24,0.82l0.868,1.603l12.64,23.347
		c0.04,0.074,0.114,0.124,0.22,0.14c0.101,0.024,0.198,0.012,0.286-0.034l11.912-6.45l4.959-2.685
		c0.112-0.06,0.181-0.139,0.217-0.238c0.038-0.093,0.032-0.178-0.008-0.252L327.142,385.656z"/>
	<path fill="#ED553E" d="M243.453,380.202c-0.046-0.138-0.168-0.216-0.359-0.231c-0.189-0.015-0.328,0.045-0.409,0.174l-1.297,2.717
		l-12.483,26.15c-0.032,0.046-0.051,0.102-0.054,0.158c-0.005,0.058,0.013,0.115,0.05,0.174c0.07,0.097,0.194,0.157,0.354,0.168
		l5.184,0.394c0.217,0.017,0.349-0.044,0.402-0.175l1.371-3.047l5.176,0.393l4.421,0.335l0.979,3.226
		c0.026,0.136,0.14,0.215,0.33,0.229l5.239,0.398c0.153,0.011,0.264-0.03,0.32-0.125c0.032-0.046,0.057-0.102,0.076-0.157
		c0.004-0.058-0.005-0.114-0.031-0.165L243.453,380.202z M241.388,402.063l-2.981-0.227l2.981-7.006l0.706-1.659l2.275,9.116
		L241.388,402.063z"/>
</g>
</svg>
